<svg width="133" height="132" viewBox="0 0 133 132" fill="none" xmlns="http://www.w3.org/2000/svg">
<g clip-path="url(#clip0_222_1193)">
<circle cx="66.5" cy="66" r="66" fill="#E5EBFC"/>
<g filter="url(#filter0_d_222_1193)">
<path d="M23.8715 40.7974C23.4032 35.5329 27.5508 31 32.8361 31H67H101.164C106.449 31 110.597 35.5329 110.128 40.7974L103.546 114.797C103.133 119.441 99.2429 123 94.5814 123H39.4186C34.7571 123 30.8671 119.441 30.454 114.797L23.8715 40.7974Z" fill="url(#paint0_linear_222_1193)" shape-rendering="crispEdges"/>
</g>
<g filter="url(#filter1_d_222_1193)">
<circle cx="67" cy="44" r="33" fill="url(#paint1_linear_222_1193)" shape-rendering="crispEdges"/>
</g>
<path fill-rule="evenodd" clip-rule="evenodd" d="M66.5 113C92.4574 113 113.5 91.9574 113.5 66H132.5C132.5 102.451 102.951 132 66.5 132C30.0492 132 0.5 102.451 0.5 66H19.5C19.5 91.9574 40.5426 113 66.5 113Z" fill="#EFF3FF"/>
<circle cx="67" cy="66" r="66" fill="url(#paint2_linear_222_1193)"/>
<circle cx="67" cy="66" r="61.5" stroke="white" stroke-opacity="0.5" stroke-width="9"/>
<path d="M71.5 72.756V79.0242C69.6232 78.3609 67.6039 78 65.5 78C55.5589 78 47.5 86.0589 47.5 96H41.5C41.5 82.7451 52.2452 72 65.5 72C67.5718 72 69.5824 72.2625 71.5 72.756ZM65.5 69C55.555 69 47.5 60.945 47.5 51C47.5 41.055 55.555 33 65.5 33C75.445 33 83.5 41.055 83.5 51C83.5 60.945 75.445 69 65.5 69ZM65.5 63C72.13 63 77.5 57.63 77.5 51C77.5 44.37 72.13 39 65.5 39C58.87 39 53.5 44.37 53.5 51C53.5 57.63 58.87 63 65.5 63ZM86.5 82.7574L92.8639 76.3935L97.1065 80.6361L90.7426 87L97.1065 93.3639L92.8639 97.6065L86.5 91.2426L80.1361 97.6065L75.8935 93.3639L82.2574 87L75.8935 80.6361L80.1361 76.3935L86.5 82.7574Z" fill="white"/>
</g>
<defs>
<filter id="filter0_d_222_1193" x="-6.16455" y="5" width="146.329" height="152" filterUnits="userSpaceOnUse" color-interpolation-filters="sRGB">
<feFlood flood-opacity="0" result="BackgroundImageFix"/>
<feColorMatrix in="SourceAlpha" type="matrix" values="0 0 0 0 0 0 0 0 0 0 0 0 0 0 0 0 0 0 127 0" result="hardAlpha"/>
<feOffset dy="4"/>
<feGaussianBlur stdDeviation="15"/>
<feComposite in2="hardAlpha" operator="out"/>
<feColorMatrix type="matrix" values="0 0 0 0 0.295833 0 0 0 0 0.295833 0 0 0 0 0.295833 0 0 0 0.06 0"/>
<feBlend mode="normal" in2="BackgroundImageFix" result="effect1_dropShadow_222_1193"/>
<feBlend mode="normal" in="SourceGraphic" in2="effect1_dropShadow_222_1193" result="shape"/>
</filter>
<filter id="filter1_d_222_1193" x="4" y="-15" width="126" height="126" filterUnits="userSpaceOnUse" color-interpolation-filters="sRGB">
<feFlood flood-opacity="0" result="BackgroundImageFix"/>
<feColorMatrix in="SourceAlpha" type="matrix" values="0 0 0 0 0 0 0 0 0 0 0 0 0 0 0 0 0 0 127 0" result="hardAlpha"/>
<feOffset dy="4"/>
<feGaussianBlur stdDeviation="15"/>
<feComposite in2="hardAlpha" operator="out"/>
<feColorMatrix type="matrix" values="0 0 0 0 0.295833 0 0 0 0 0.295833 0 0 0 0 0.295833 0 0 0 0.06 0"/>
<feBlend mode="normal" in2="BackgroundImageFix" result="effect1_dropShadow_222_1193"/>
<feBlend mode="normal" in="SourceGraphic" in2="effect1_dropShadow_222_1193" result="shape"/>
</filter>
<linearGradient id="paint0_linear_222_1193" x1="67" y1="31" x2="67" y2="123" gradientUnits="userSpaceOnUse">
<stop stop-color="#F9FDFF" stop-opacity="0.8"/>
<stop offset="1" stop-color="#F9FDFF" stop-opacity="0"/>
</linearGradient>
<linearGradient id="paint1_linear_222_1193" x1="67" y1="11" x2="67" y2="77" gradientUnits="userSpaceOnUse">
<stop stop-color="#F9FDFF" stop-opacity="0.8"/>
<stop offset="1" stop-color="#F9FDFF" stop-opacity="0"/>
</linearGradient>
<linearGradient id="paint2_linear_222_1193" x1="67" y1="0" x2="67" y2="132" gradientUnits="userSpaceOnUse">
<stop stop-color="#EFA93F"/>
<stop offset="1" stop-color="#F99B7D"/>
</linearGradient>
<clipPath id="clip0_222_1193">
<rect x="0.5" width="132" height="132" rx="66" fill="white"/>
</clipPath>
</defs>
</svg>
