<svg width="25" height="24" viewBox="0 0 25 24" fill="none" xmlns="http://www.w3.org/2000/svg">
<path d="M15.251 22.75H9.25098C3.82098 22.75 1.50098 20.43 1.50098 15V9C1.50098 3.57 3.82098 1.25 9.25098 1.25H15.251C20.681 1.25 23.001 3.57 23.001 9V15C23.001 20.43 20.681 22.75 15.251 22.75ZM9.25098 2.75C4.64098 2.75 3.00098 4.39 3.00098 9V15C3.00098 19.61 4.64098 21.25 9.25098 21.25H15.251C19.861 21.25 21.501 19.61 21.501 15V9C21.501 4.39 19.861 2.75 15.251 2.75H9.25098Z" fill="black"/>
<path d="M9.25098 10.75C7.73098 10.75 6.50098 9.52 6.50098 8C6.50098 6.48 7.73098 5.25 9.25098 5.25C10.771 5.25 12.001 6.48 12.001 8C12.001 9.52 10.771 10.75 9.25098 10.75ZM9.25098 6.75C8.56098 6.75 8.00098 7.31 8.00098 8C8.00098 8.69 8.56098 9.25 9.25098 9.25C9.94098 9.25 10.501 8.69 10.501 8C10.501 7.31 9.94098 6.75 9.25098 6.75Z" fill="black"/>
<path d="M2.92075 19.7001C2.68075 19.7001 2.44075 19.5801 2.30075 19.3701C2.07075 19.0301 2.16075 18.5601 2.51075 18.3301L7.44075 15.0201C8.52075 14.2901 10.0107 14.3801 10.9907 15.2101L11.3207 15.5001C11.8207 15.9301 12.6707 15.9301 13.1607 15.5001L17.3207 11.9301C18.3807 11.0201 20.0507 11.0201 21.1207 11.9301L22.7507 13.3301C23.0607 13.6001 23.1007 14.0701 22.8307 14.3901C22.5607 14.7001 22.0907 14.7401 21.7707 14.4701L20.1407 13.0701C19.6407 12.6401 18.7907 12.6401 18.2907 13.0701L14.1307 16.6401C13.0707 17.5501 11.4007 17.5501 10.3307 16.6401L10.0007 16.3501C9.54075 15.9601 8.78075 15.9201 8.27075 16.2701L3.34075 19.5801C3.21075 19.6601 3.06075 19.7001 2.92075 19.7001Z" fill="black"/>
</svg>
