<svg width="300" height="45" viewBox="0 0 300 45" fill="none" xmlns="http://www.w3.org/2000/svg">
<rect width="300" height="45" rx="6" fill="#FEE500"/>
<g clip-path="url(#clip0_224_3435)">
<path opacity="0.902" fill-rule="evenodd" clip-rule="evenodd" d="M77.5 14.4438C72.79 14.4438 68.5 18.2298 68.5 21.4328C68.5 23.8328 70.058 25.9498 72.431 27.2078L71.433 30.8738C71.344 31.1988 71.713 31.4568 71.996 31.2698L76.373 28.3648C76.742 28.4008 77.118 28.4218 77.5 28.4218C82.47 28.4218 86.5 25.2928 86.5 21.4328C86.5 18.2298 82.47 14.4438 77.5 14.4438Z" fill="black"/>
</g>
<path d="M96.095 16.915H101.968C101.968 20.685 100.692 24.1215 96.037 26.4415L95.3845 25.528C97.7915 24.339 99.227 22.86 100.025 21.12L95.6455 21.5405L95.4425 20.4965L100.387 20.163C100.605 19.438 100.735 18.684 100.779 17.8865H96.095V16.915ZM107.362 20.8445V21.8305H105.274V28.573H104.085V15.5665H105.274V20.8445H107.362ZM109.434 16.915H115.306C115.306 20.685 114.03 24.1215 109.376 26.4415L108.723 25.528C111.13 24.339 112.566 22.86 113.363 21.12L108.984 21.5405L108.781 20.4965L113.726 20.163C113.943 19.438 114.074 18.684 114.117 17.8865H109.434V16.915ZM120.7 20.8445V21.8305H118.612V28.573H117.423V15.5665H118.612V20.8445H120.7ZM124.237 19.8295C124.237 21.323 125.76 22.2945 127.833 22.2945C129.907 22.2945 131.415 21.323 131.415 19.8295C131.415 18.336 129.907 17.3645 127.833 17.3645C125.76 17.3645 124.237 18.336 124.237 19.8295ZM128.428 25.9195H133.749V26.9055H121.932V25.9195H127.224V23.208C124.803 23.034 123.092 21.7435 123.092 19.8295C123.092 17.756 125.078 16.422 127.833 16.422C130.574 16.422 132.546 17.756 132.546 19.8295C132.546 21.7435 130.849 23.034 128.428 23.208V25.9195ZM136.59 25.6585V24.7015H145.522V28.5875H144.333V25.6585H136.59ZM141.752 22.5845H147.045V23.5415H135.271V22.5845H140.563V21.207H136.822V15.9145H145.595V16.8425H138.011V18.075H145.247V18.974H138.011V20.279H145.667V21.207H141.752V22.5845ZM154.496 16.3785C157.193 16.3785 159.223 17.814 159.223 19.9745C159.223 22.1495 157.193 23.5705 154.496 23.5705C151.799 23.5705 149.769 22.1495 149.769 19.9745C149.769 17.814 151.799 16.3785 154.496 16.3785ZM154.496 17.35C152.452 17.35 150.9 18.4085 150.9 19.9745C150.9 21.555 152.452 22.599 154.496 22.599C156.555 22.599 158.092 21.555 158.092 19.9745C158.092 18.4085 156.555 17.35 154.496 17.35ZM148.609 25.8615H160.427V26.8475H148.609V25.8615ZM168.444 25.992H173.766V26.9635H161.948V25.992H167.241V23.5415H163.427V19.525H171.141V17.495H163.398V16.5235H172.301V20.482H164.602V22.5845H172.606V23.5415H168.444V25.992ZM187.99 17.3355V17.1905H180.305V16.2335H189.164V17.3355C189.164 18.3795 189.164 19.438 188.802 20.772L187.642 20.6415C187.99 19.3075 187.99 18.3505 187.99 17.3355ZM184.727 27.6305C186.772 27.6305 188.077 27.0795 188.077 26.1805C188.077 25.2525 186.772 24.7015 184.727 24.7015C182.697 24.7015 181.392 25.2525 181.392 26.1805C181.392 27.0795 182.697 27.6305 184.727 27.6305ZM184.727 23.788C187.497 23.788 189.266 24.6725 189.266 26.1805C189.266 27.6595 187.497 28.5585 184.727 28.5585C181.958 28.5585 180.203 27.6595 180.203 26.1805C180.203 24.6725 181.958 23.788 184.727 23.788ZM184.916 21.6275H190.629V22.5845H178.927V21.6275H183.727V19.1335H184.916V21.6275ZM198.095 17.0455C196.123 17.0455 194.775 17.7705 194.775 18.916C194.775 20.0615 196.123 20.801 198.095 20.801C200.082 20.801 201.43 20.0615 201.43 18.916C201.43 17.7705 200.082 17.0455 198.095 17.0455ZM198.095 21.758C195.398 21.758 193.557 20.656 193.557 18.916C193.557 17.176 195.398 16.0885 198.095 16.0885C200.807 16.0885 202.648 17.176 202.648 18.916C202.648 20.656 200.807 21.758 198.095 21.758ZM204.011 22.976V23.9475H200.937V28.573H199.734V23.9475H196.471V28.573H195.268V23.9475H192.237V22.976H204.011ZM209.39 24.687C210.579 24.687 211.434 23.846 211.434 22.686C211.434 21.5115 210.579 20.6705 209.39 20.6705C208.215 20.6705 207.36 21.5115 207.36 22.686C207.36 23.846 208.215 24.687 209.39 24.687ZM209.39 19.6845C211.246 19.6845 212.565 20.9315 212.565 22.686C212.565 24.455 211.246 25.673 209.39 25.673C207.563 25.673 206.243 24.455 206.243 22.686C206.243 20.9315 207.563 19.6845 209.39 19.6845ZM209.97 15.726V17.6545H213.174V18.6115H205.504V17.6545H208.781V15.726H209.97ZM217.727 20.917V21.9175H215.596V28.573H214.407V15.581H215.596V20.917H217.727ZM219.683 16.973H225.773C225.773 20.7285 224.048 24.0345 219.727 26.1515L219.089 25.18C222.583 23.5125 224.323 21.0185 224.57 17.93H219.683V16.973ZM228.398 15.5665H229.587V28.573H228.398V15.5665Z" fill="black"/>
<defs>
<clipPath id="clip0_224_3435">
<rect width="18" height="18" fill="white" transform="translate(68.5 13.5)"/>
</clipPath>
</defs>
</svg>
